<mxfile host="app.diagrams.net" agent="Mozilla/5.0 (Macintosh; Intel Mac OS X 10_15_7) AppleWebKit/605.1.15 (KHTML, like Gecko) Version/17.5 Safari/605.1.15" version="25.0.3">
  <diagram name="Page-1" id="kJkv3xHiCpNm3P_OQvY3">
    <mxGraphModel dx="1418" dy="771" grid="1" gridSize="10" guides="1" tooltips="1" connect="1" arrows="1" fold="1" page="1" pageScale="1" pageWidth="827" pageHeight="1169" math="0" shadow="0">
      <root>
        <mxCell id="0" />
        <mxCell id="1" parent="0" />
        <mxCell id="72sANvTvvz615wocW-7p-1" value="Contacts" style="shape=table;startSize=30;container=1;collapsible=1;childLayout=tableLayout;fixedRows=1;rowLines=0;fontStyle=1;align=center;resizeLast=1;html=1;" parent="1" vertex="1">
          <mxGeometry x="120" y="160" width="470" height="150" as="geometry" />
        </mxCell>
        <mxCell id="72sANvTvvz615wocW-7p-2" value="" style="shape=tableRow;horizontal=0;startSize=0;swimlaneHead=0;swimlaneBody=0;fillColor=none;collapsible=0;dropTarget=0;points=[[0,0.5],[1,0.5]];portConstraint=eastwest;top=0;left=0;right=0;bottom=1;" parent="72sANvTvvz615wocW-7p-1" vertex="1">
          <mxGeometry y="30" width="470" height="30" as="geometry" />
        </mxCell>
        <mxCell id="72sANvTvvz615wocW-7p-3" value="PK" style="shape=partialRectangle;connectable=0;fillColor=none;top=0;left=0;bottom=0;right=0;fontStyle=1;overflow=hidden;whiteSpace=wrap;html=1;" parent="72sANvTvvz615wocW-7p-2" vertex="1">
          <mxGeometry width="30" height="30" as="geometry">
            <mxRectangle width="30" height="30" as="alternateBounds" />
          </mxGeometry>
        </mxCell>
        <mxCell id="72sANvTvvz615wocW-7p-4" value="contactId (ULID)" style="shape=partialRectangle;connectable=0;fillColor=none;top=0;left=0;bottom=0;right=0;align=left;spacingLeft=6;fontStyle=5;overflow=hidden;whiteSpace=wrap;html=1;" parent="72sANvTvvz615wocW-7p-2" vertex="1">
          <mxGeometry x="30" width="440" height="30" as="geometry">
            <mxRectangle width="440" height="30" as="alternateBounds" />
          </mxGeometry>
        </mxCell>
        <mxCell id="72sANvTvvz615wocW-7p-5" value="" style="shape=tableRow;horizontal=0;startSize=0;swimlaneHead=0;swimlaneBody=0;fillColor=none;collapsible=0;dropTarget=0;points=[[0,0.5],[1,0.5]];portConstraint=eastwest;top=0;left=0;right=0;bottom=0;" parent="72sANvTvvz615wocW-7p-1" vertex="1">
          <mxGeometry y="60" width="470" height="30" as="geometry" />
        </mxCell>
        <mxCell id="72sANvTvvz615wocW-7p-6" value="" style="shape=partialRectangle;connectable=0;fillColor=none;top=0;left=0;bottom=0;right=0;editable=1;overflow=hidden;whiteSpace=wrap;html=1;" parent="72sANvTvvz615wocW-7p-5" vertex="1">
          <mxGeometry width="30" height="30" as="geometry">
            <mxRectangle width="30" height="30" as="alternateBounds" />
          </mxGeometry>
        </mxCell>
        <mxCell id="72sANvTvvz615wocW-7p-7" value="name (varchar(100))" style="shape=partialRectangle;connectable=0;fillColor=none;top=0;left=0;bottom=0;right=0;align=left;spacingLeft=6;overflow=hidden;whiteSpace=wrap;html=1;" parent="72sANvTvvz615wocW-7p-5" vertex="1">
          <mxGeometry x="30" width="440" height="30" as="geometry">
            <mxRectangle width="440" height="30" as="alternateBounds" />
          </mxGeometry>
        </mxCell>
        <mxCell id="72sANvTvvz615wocW-7p-8" value="" style="shape=tableRow;horizontal=0;startSize=0;swimlaneHead=0;swimlaneBody=0;fillColor=none;collapsible=0;dropTarget=0;points=[[0,0.5],[1,0.5]];portConstraint=eastwest;top=0;left=0;right=0;bottom=0;" parent="72sANvTvvz615wocW-7p-1" vertex="1">
          <mxGeometry y="90" width="470" height="30" as="geometry" />
        </mxCell>
        <mxCell id="72sANvTvvz615wocW-7p-9" value="" style="shape=partialRectangle;connectable=0;fillColor=none;top=0;left=0;bottom=0;right=0;editable=1;overflow=hidden;whiteSpace=wrap;html=1;" parent="72sANvTvvz615wocW-7p-8" vertex="1">
          <mxGeometry width="30" height="30" as="geometry">
            <mxRectangle width="30" height="30" as="alternateBounds" />
          </mxGeometry>
        </mxCell>
        <mxCell id="72sANvTvvz615wocW-7p-10" value="phoneNumber (varchar(15))" style="shape=partialRectangle;connectable=0;fillColor=none;top=0;left=0;bottom=0;right=0;align=left;spacingLeft=6;overflow=hidden;whiteSpace=wrap;html=1;" parent="72sANvTvvz615wocW-7p-8" vertex="1">
          <mxGeometry x="30" width="440" height="30" as="geometry">
            <mxRectangle width="440" height="30" as="alternateBounds" />
          </mxGeometry>
        </mxCell>
        <mxCell id="72sANvTvvz615wocW-7p-11" value="" style="shape=tableRow;horizontal=0;startSize=0;swimlaneHead=0;swimlaneBody=0;fillColor=none;collapsible=0;dropTarget=0;points=[[0,0.5],[1,0.5]];portConstraint=eastwest;top=0;left=0;right=0;bottom=0;" parent="72sANvTvvz615wocW-7p-1" vertex="1">
          <mxGeometry y="120" width="470" height="30" as="geometry" />
        </mxCell>
        <mxCell id="72sANvTvvz615wocW-7p-12" value="" style="shape=partialRectangle;connectable=0;fillColor=none;top=0;left=0;bottom=0;right=0;editable=1;overflow=hidden;whiteSpace=wrap;html=1;" parent="72sANvTvvz615wocW-7p-11" vertex="1">
          <mxGeometry width="30" height="30" as="geometry">
            <mxRectangle width="30" height="30" as="alternateBounds" />
          </mxGeometry>
        </mxCell>
        <mxCell id="72sANvTvvz615wocW-7p-13" value="email (varchar(100))" style="shape=partialRectangle;connectable=0;fillColor=none;top=0;left=0;bottom=0;right=0;align=left;spacingLeft=6;overflow=hidden;whiteSpace=wrap;html=1;" parent="72sANvTvvz615wocW-7p-11" vertex="1">
          <mxGeometry x="30" width="440" height="30" as="geometry">
            <mxRectangle width="440" height="30" as="alternateBounds" />
          </mxGeometry>
        </mxCell>
        <mxCell id="72sANvTvvz615wocW-7p-14" value="&lt;h1 style=&quot;margin-top: 0px;&quot;&gt;Database&lt;/h1&gt;&lt;h1 style=&quot;margin-top: 0px;&quot;&gt;&lt;span style=&quot;font-size: 16px; font-weight: 400; caret-color: rgb(55, 65, 81); color: rgb(55, 65, 81); font-family: ui-sans-serif, system-ui, sans-serif, &amp;quot;Apple Color Emoji&amp;quot;, &amp;quot;Segoe UI Emoji&amp;quot;, &amp;quot;Segoe UI Symbol&amp;quot;, &amp;quot;Noto Color Emoji&amp;quot;; background-color: rgb(255, 255, 255);&quot;&gt;A database to store contacts (name, phone number, email) in a table and implement basic CRUD (Create, Read, Update, Delete) operations.&lt;/span&gt;&lt;br&gt;&lt;/h1&gt;" style="text;html=1;whiteSpace=wrap;overflow=hidden;rounded=0;" parent="1" vertex="1">
          <mxGeometry x="120" y="10" width="470" height="150" as="geometry" />
        </mxCell>
      </root>
    </mxGraphModel>
  </diagram>
</mxfile>
